<?xml version="1.0" encoding="UTF-8" standalone="no"?>
<!-- Created with Inkscape (http://www.inkscape.org/) -->

<svg
   xmlns:rendltx="http://NOTSET"
   xmlns:dc="http://purl.org/dc/elements/1.1/"
   xmlns:cc="http://creativecommons.org/ns#"
   xmlns:rdf="http://www.w3.org/1999/02/22-rdf-syntax-ns#"
   xmlns:svg="http://www.w3.org/2000/svg"
   xmlns="http://www.w3.org/2000/svg"
   xmlns:xlink="http://www.w3.org/1999/xlink"
   xmlns:sodipodi="http://sodipodi.sourceforge.net/DTD/sodipodi-0.dtd"
   xmlns:inkscape="http://www.inkscape.org/namespaces/inkscape"
   width="177.71648mm"
   height="90.903389mm"
   viewBox="0 0 177.71648 90.903389"
   version="1.1"
   id="svg8"
   inkscape:version="0.92.4 (5da689c313, 2019-01-14)"
   sodipodi:docname="scattering_experiment.svg"
   inkscape:export-filename="C:\Users\Michael\Documents\GitHub\advancedquantum\Figures\scattering.png"
   inkscape:export-xdpi="200"
   inkscape:export-ydpi="200">
  <defs
     id="defs2">
    <marker
       inkscape:stockid="Arrow2Mend"
       orient="auto"
       refY="0.0"
       refX="0.0"
       id="Arrow2Mend"
       style="overflow:visible;"
       inkscape:isstock="true">
      <path
         id="path4646"
         style="fill-rule:evenodd;stroke-width:0.625;stroke-linejoin:round;stroke:#000000;stroke-opacity:1;fill:#000000;fill-opacity:1"
         d="M 8.7185878,4.0337352 L -2.2072895,0.016013256 L 8.7185884,-4.0017078 C 6.9730900,-1.6296469 6.9831476,1.6157441 8.7185878,4.0337352 z "
         transform="scale(0.6) rotate(180) translate(0,0)" />
    </marker>
    <marker
       inkscape:stockid="Arrow2Lend"
       orient="auto"
       refY="0.0"
       refX="0.0"
       id="Arrow2Lend"
       style="overflow:visible;"
       inkscape:isstock="true">
      <path
         id="path4640"
         style="fill-rule:evenodd;stroke-width:0.625;stroke-linejoin:round;stroke:#000000;stroke-opacity:1;fill:#000000;fill-opacity:1"
         d="M 8.7185878,4.0337352 L -2.2072895,0.016013256 L 8.7185884,-4.0017078 C 6.9730900,-1.6296469 6.9831476,1.6157441 8.7185878,4.0337352 z "
         transform="scale(1.1) rotate(180) translate(1,0)" />
    </marker>
    <marker
       inkscape:stockid="TriangleOutM"
       orient="auto"
       refY="0.0"
       refX="0.0"
       id="TriangleOutM"
       style="overflow:visible"
       inkscape:isstock="true">
      <path
         id="path4764"
         d="M 5.77,0.0 L -2.88,5.0 L -2.88,-5.0 L 5.77,0.0 z "
         style="fill-rule:evenodd;stroke:#000000;stroke-width:1pt;stroke-opacity:1;fill:#000000;fill-opacity:1"
         transform="scale(0.4)" />
    </marker>
    <marker
       inkscape:stockid="TriangleOutS"
       orient="auto"
       refY="0.0"
       refX="0.0"
       id="TriangleOutS"
       style="overflow:visible"
       inkscape:isstock="true">
      <path
         id="path4767"
         d="M 5.77,0.0 L -2.88,5.0 L -2.88,-5.0 L 5.77,0.0 z "
         style="fill-rule:evenodd;stroke:#000000;stroke-width:1pt;stroke-opacity:1;fill:#000000;fill-opacity:1"
         transform="scale(0.2)" />
    </marker>
    <marker
       inkscape:stockid="Arrow1Lend"
       orient="auto"
       refY="0.0"
       refX="0.0"
       id="marker5279"
       style="overflow:visible;"
       inkscape:isstock="true">
      <path
         id="path5277"
         d="M 0.0,0.0 L 5.0,-5.0 L -12.5,0.0 L 5.0,5.0 L 0.0,0.0 z "
         style="fill-rule:evenodd;stroke:#000000;stroke-width:1pt;stroke-opacity:1;fill:#000000;fill-opacity:1"
         transform="scale(0.8) rotate(180) translate(12.5,0)" />
    </marker>
    <marker
       inkscape:stockid="DotS"
       orient="auto"
       refY="0.0"
       refX="0.0"
       id="DotS"
       style="overflow:visible"
       inkscape:isstock="true">
      <path
         id="path4686"
         d="M -2.5,-1.0 C -2.5,1.7600000 -4.7400000,4.0 -7.5,4.0 C -10.260000,4.0 -12.5,1.7600000 -12.5,-1.0 C -12.5,-3.7600000 -10.260000,-6.0 -7.5,-6.0 C -4.7400000,-6.0 -2.5,-3.7600000 -2.5,-1.0 z "
         style="fill-rule:evenodd;stroke:#000000;stroke-width:1pt;stroke-opacity:1;fill:#000000;fill-opacity:1"
         transform="scale(0.2) translate(7.4, 1)" />
    </marker>
    <marker
       inkscape:stockid="SquareS"
       orient="auto"
       refY="0.0"
       refX="0.0"
       id="SquareS"
       style="overflow:visible"
       inkscape:isstock="true">
      <path
         id="path4695"
         d="M -5.0,-5.0 L -5.0,5.0 L 5.0,5.0 L 5.0,-5.0 L -5.0,-5.0 z "
         style="fill-rule:evenodd;stroke:#000000;stroke-width:1pt;stroke-opacity:1;fill:#000000;fill-opacity:1"
         transform="scale(0.2)" />
    </marker>
    <marker
       inkscape:stockid="Arrow2Lstart"
       orient="auto"
       refY="0.0"
       refX="0.0"
       id="Arrow2Lstart"
       style="overflow:visible"
       inkscape:isstock="true">
      <path
         id="path4637"
         style="fill-rule:evenodd;stroke-width:0.625;stroke-linejoin:round;stroke:#000000;stroke-opacity:1;fill:#000000;fill-opacity:1"
         d="M 8.7185878,4.0337352 L -2.2072895,0.016013256 L 8.7185884,-4.0017078 C 6.9730900,-1.6296469 6.9831476,1.6157441 8.7185878,4.0337352 z "
         transform="scale(1.1) translate(1,0)" />
    </marker>
    <marker
       inkscape:stockid="Arrow1Lend"
       orient="auto"
       refY="0.0"
       refX="0.0"
       id="marker4895"
       style="overflow:visible;"
       inkscape:isstock="true">
      <path
         id="path4893"
         d="M 0.0,0.0 L 5.0,-5.0 L -12.5,0.0 L 5.0,5.0 L 0.0,0.0 z "
         style="fill-rule:evenodd;stroke:#000000;stroke-width:1pt;stroke-opacity:1;fill:#000000;fill-opacity:1"
         transform="scale(0.8) rotate(180) translate(12.5,0)" />
    </marker>
    <marker
       inkscape:stockid="Arrow1Lstart"
       orient="auto"
       refY="0.0"
       refX="0.0"
       id="Arrow1Lstart"
       style="overflow:visible"
       inkscape:isstock="true">
      <path
         id="path4619"
         d="M 0.0,0.0 L 5.0,-5.0 L -12.5,0.0 L 5.0,5.0 L 0.0,0.0 z "
         style="fill-rule:evenodd;stroke:#000000;stroke-width:1pt;stroke-opacity:1;fill:#000000;fill-opacity:1"
         transform="scale(0.8) translate(12.5,0)" />
    </marker>
    <marker
       inkscape:stockid="Arrow1Lend"
       orient="auto"
       refY="0.0"
       refX="0.0"
       id="Arrow1Lend"
       style="overflow:visible;"
       inkscape:isstock="true">
      <path
         id="path4622"
         d="M 0.0,0.0 L 5.0,-5.0 L -12.5,0.0 L 5.0,5.0 L 0.0,0.0 z "
         style="fill-rule:evenodd;stroke:#000000;stroke-width:1pt;stroke-opacity:1;fill:#000000;fill-opacity:1"
         transform="scale(0.8) rotate(180) translate(12.5,0)" />
    </marker>
    <marker
       inkscape:isstock="true"
       style="overflow:visible"
       id="marker3518"
       refX="0"
       refY="0"
       orient="auto"
       inkscape:stockid="Arrow2Lend">
      <path
         inkscape:connector-curvature="0"
         transform="matrix(-1.1,0,0,-1.1,-1.1,0)"
         d="M 8.7185878,4.0337352 -2.2072895,0.01601326 8.7185884,-4.0017078 c -1.7454984,2.3720609 -1.7354408,5.6174519 -6e-7,8.035443 z"
         style="fill:#000000;fill-opacity:1;fill-rule:evenodd;stroke:#000000;stroke-width:0.625;stroke-linejoin:round;stroke-opacity:1"
         id="path3516" />
    </marker>
    <marker
       inkscape:stockid="Arrow2Lend"
       orient="auto"
       refY="0.0"
       refX="0.0"
       id="marker1635"
       style="overflow:visible;"
       inkscape:isstock="true">
      <path
         id="path1633"
         style="fill-rule:evenodd;stroke-width:0.625;stroke-linejoin:round;stroke:#000000;stroke-opacity:1;fill:#000000;fill-opacity:1"
         d="M 8.7185878,4.0337352 L -2.2072895,0.016013256 L 8.7185884,-4.0017078 C 6.9730900,-1.6296469 6.9831476,1.6157441 8.7185878,4.0337352 z "
         transform="scale(1.1) rotate(180) translate(1,0)" />
    </marker>
    <marker
       inkscape:stockid="Arrow2Lend"
       orient="auto"
       refY="0.0"
       refX="0.0"
       id="marker1465"
       style="overflow:visible;"
       inkscape:isstock="true">
      <path
         id="path1223"
         style="fill-rule:evenodd;stroke-width:0.625;stroke-linejoin:round;stroke:#000000;stroke-opacity:1;fill:#000000;fill-opacity:1"
         d="M 8.7185878,4.0337352 L -2.2072895,0.016013256 L 8.7185884,-4.0017078 C 6.9730900,-1.6296469 6.9831476,1.6157441 8.7185878,4.0337352 z "
         transform="scale(1.1) rotate(180) translate(1,0)" />
    </marker>
    <marker
       inkscape:stockid="Arrow2Lend"
       orient="auto"
       refY="0"
       refX="0"
       id="marker2363"
       style="overflow:visible"
       inkscape:isstock="true">
      <path
         id="path2361"
         style="fill:#000000;fill-opacity:1;fill-rule:evenodd;stroke:#000000;stroke-width:0.625;stroke-linejoin:round;stroke-opacity:1"
         d="M 8.7185878,4.0337352 -2.2072895,0.01601326 8.7185884,-4.0017078 c -1.7454984,2.3720609 -1.7354408,5.6174519 -6e-7,8.035443 z"
         transform="matrix(-1.1,0,0,-1.1,-1.1,0)"
         inkscape:connector-curvature="0" />
    </marker>
    <marker
       inkscape:isstock="true"
       style="overflow:visible"
       id="marker1219"
       refX="0"
       refY="0"
       orient="auto"
       inkscape:stockid="Arrow1Lend">
      <path
         transform="matrix(-0.8,0,0,-0.8,-10,0)"
         style="fill:#000000;fill-opacity:1;fill-rule:evenodd;stroke:#000000;stroke-width:1.00000003pt;stroke-opacity:1"
         d="M 0,0 5,-5 -12.5,0 5,5 Z"
         id="path1217"
         inkscape:connector-curvature="0" />
    </marker>
    <marker
       inkscape:stockid="Arrow1Lend"
       orient="auto"
       refY="0"
       refX="0"
       id="marker1149"
       style="overflow:visible"
       inkscape:isstock="true">
      <path
         id="path1147"
         d="M 0,0 5,-5 -12.5,0 5,5 Z"
         style="fill:#000000;fill-opacity:1;fill-rule:evenodd;stroke:#000000;stroke-width:1.00000003pt;stroke-opacity:1"
         transform="matrix(-0.8,0,0,-0.8,-10,0)"
         inkscape:connector-curvature="0" />
    </marker>
    <marker
       inkscape:stockid="Arrow2Lend"
       orient="auto"
       refY="0"
       refX="0"
       id="marker1635-6"
       style="overflow:visible"
       inkscape:isstock="true">
      <path
         inkscape:connector-curvature="0"
         id="path1633-6"
         style="fill:#000000;fill-opacity:1;fill-rule:evenodd;stroke:#000000;stroke-width:0.625;stroke-linejoin:round;stroke-opacity:1"
         d="M 8.7185878,4.0337352 -2.2072895,0.01601326 8.7185884,-4.0017078 c -1.7454984,2.3720609 -1.7354408,5.6174519 -6e-7,8.035443 z"
         transform="matrix(-1.1,0,0,-1.1,-1.1,0)" />
    </marker>
  </defs>
  <sodipodi:namedview
     id="base"
     pagecolor="#ffffff"
     bordercolor="#666666"
     borderopacity="1.0"
     inkscape:pageopacity="0.0"
     inkscape:pageshadow="2"
     inkscape:zoom="2.02"
     inkscape:cx="326.63841"
     inkscape:cy="181.49554"
     inkscape:document-units="mm"
     inkscape:current-layer="ltx-render-layer"
     showgrid="false"
     inkscape:window-width="1920"
     inkscape:window-height="1017"
     inkscape:window-x="-8"
     inkscape:window-y="-8"
     inkscape:window-maximized="1" />
  <metadata
     id="metadata5">
    <rdf:RDF>
      <cc:Work
         rdf:about="">
        <dc:format>image/svg+xml</dc:format>
        <dc:type
           rdf:resource="http://purl.org/dc/dcmitype/StillImage" />
        <dc:title />
      </cc:Work>
    </rdf:RDF>
  </metadata>
  <g
     inkscape:label="Layer 1"
     inkscape:groupmode="layer"
     id="layer1"
     transform="translate(-1.886409,-71.599762)">
    <text
       xml:space="preserve"
       style="font-style:normal;font-weight:normal;font-size:10.58333302px;line-height:1.25;font-family:sans-serif;letter-spacing:0px;word-spacing:0px;fill:#000000;fill-opacity:1;stroke:none;stroke-width:0.26458332"
       x="31.983767"
       y="114.34187"
       id="text1511"><tspan
         sodipodi:role="line"
         id="tspan1509"
         x="31.983767"
         y="123.99737"
         style="stroke-width:0.26458332" /></text>
    <rect
       style="fill:none;fill-opacity:1;stroke:#000000;stroke-width:0.26499999;stroke-miterlimit:4;stroke-dasharray:none;stroke-opacity:1"
       id="rect1513"
       width="177.45148"
       height="90.63839"
       x="2.018909"
       y="71.732262" />
    <circle
       style="fill:none;fill-opacity:1;stroke:#000000;stroke-width:0.26499999;stroke-miterlimit:4;stroke-dasharray:none;stroke-dashoffset:0;stroke-opacity:1"
       id="path4596"
       cx="27.791082"
       cy="104.64935"
       r="2.4348159" />
    <circle
       style="fill:none;fill-opacity:1;stroke:#000000;stroke-width:0.26499999;stroke-miterlimit:4;stroke-dasharray:none;stroke-dashoffset:0;stroke-opacity:1"
       id="path4596-3"
       cx="64.637962"
       cy="104.81168"
       r="2.4348159" />
    <path
       style="fill:none;stroke:#000000;stroke-width:0.26458332px;stroke-linecap:butt;stroke-linejoin:miter;stroke-opacity:1"
       d="m 27.304119,102.37686 37.333843,0.16232"
       id="path4613"
       inkscape:connector-curvature="0" />
    <path
       style="fill:none;stroke:#000000;stroke-width:0.26458332px;stroke-linecap:butt;stroke-linejoin:miter;stroke-opacity:1"
       d="m 27.304119,106.92185 37.658487,0.32464"
       id="path4615"
       inkscape:connector-curvature="0" />
    <path
       style="fill:none;stroke:#000000;stroke-width:0.26499999;stroke-linecap:butt;stroke-linejoin:miter;stroke-miterlimit:4;stroke-dasharray:2.1199999, 0.26499999;stroke-dashoffset:0;stroke-opacity:1;marker-end:url(#Arrow1Lend)"
       d="M 68.533669,104.81168 H 116.09374"
       id="path4617"
       inkscape:connector-curvature="0" />
    <path
       style="fill:none;stroke:#000000;stroke-width:0.26458332px;stroke-linecap:butt;stroke-linejoin:miter;stroke-opacity:1"
       d="m 98.005047,102.55091 v 2.2725"
       id="path4883"
       inkscape:connector-curvature="0" />
    <rect
       style="fill:#000000;fill-opacity:0.11557791;stroke:none;stroke-width:0.33029205;stroke-miterlimit:4;stroke-dasharray:0.33029204, 0.33029204;stroke-dashoffset:0;stroke-opacity:1"
       id="rect4922"
       width="47.178715"
       height="4.6753683"
       x="67.849182"
       y="102.36513" />
    <ellipse
       style="fill:#000000;fill-opacity:0.11557791;stroke:#000000;stroke-width:0.33000001;stroke-miterlimit:4;stroke-dasharray:none;stroke-dashoffset:0;stroke-opacity:1"
       id="path4924"
       cx="127.46011"
       cy="105.65913"
       rx="7.8631191"
       ry="6.5880189" />
    <text
       xml:space="preserve"
       style="font-style:normal;font-weight:normal;font-size:10.58333302px;line-height:1.25;font-family:sans-serif;letter-spacing:0px;word-spacing:0px;fill:#000000;fill-opacity:1;stroke:none;stroke-width:0.26458332"
       x="80.706444"
       y="97.052223"
       id="text4936"><tspan
         sodipodi:role="line"
         x="80.706444"
         y="97.052223"
         style="font-size:3.52777767px;stroke-width:0.26458332"
         id="tspan4938">I<tspan
   style="line-height:0"
   id="tspan4948">mpact parameter</tspan></tspan></text>
    <text
       xml:space="preserve"
       style="font-style:normal;font-weight:normal;font-size:10.58333302px;line-height:1.25;font-family:sans-serif;letter-spacing:0px;word-spacing:0px;fill:#000000;fill-opacity:1;stroke:none;stroke-width:0.26458332"
       x="84.85051"
       y="93.651932"
       id="text4962"><tspan
         sodipodi:role="line"
         id="tspan4960"
         x="84.85051"
         y="93.651932"
         style="font-size:2.82222223px;stroke-width:0.26458332">(Radius of beam)</tspan></text>
  </g>
  <g
     rendltx:math="True"
     rendltx:newline="False"
     rendltx:fontsize="14"
     rendltx:depth="0"
     rendltx:scale="1.0"
     rendltx:packages="amsmath,amssymb"
     rendltx:preamble=""
     id="ltx-render-layer"
     inkscape:groupmode="layer"
     inkscape:label="Rendered Latex">
    <g
       id="lx-text4966"
       transform="matrix(0.352778,0,0,0.352778,111.3351,25.452442)">
      <defs
         id="defs5132">
        <g
           id="g5130">
          <symbol
             id="lx-text4966-glyph0-0"
             overflow="visible"
             style="overflow:visible">
            <path
               id="path5124"
               d=""
               style="stroke:none"
               inkscape:connector-curvature="0" />
          </symbol>
          <symbol
             id="lx-text4966-glyph0-1"
             overflow="visible"
             style="overflow:visible">
            <path
               id="path5127"
               d="m 0.4375,2.484375 c 0,0.0625 -0.03125,0.15625 -0.03125,0.234375 0,0.21875 0.171875,0.359375 0.375,0.359375 C 1,3.078125 1.203125,2.9375 1.296875,2.734375 1.34375,2.609375 1.75,0.890625 2.203125,-0.875 2.5,-0.15625 3.03125,0.140625 3.578125,0.140625 c 1.625,0 3.46875,-2 3.46875,-4.171875 0,-1.53125 -0.9375,-2.296875 -1.921875,-2.296875 -1.265625,0 -2.796875,1.3125 -3.28125,3.21875 z m 3.140625,-2.625 c -0.984375,0 -1.21875,-1.140625 -1.21875,-1.3125 0,-0.078125 0.359375,-1.4375 0.390625,-1.65625 0.734375,-2.859375 2.140625,-2.921875 2.359375,-2.921875 0.640625,0 1,0.578125 1,1.421875 0,0.734375 -0.390625,2.15625 -0.625,2.765625 -0.4375,0.984375 -1.1875,1.703125 -1.90625,1.703125 z m 0,0"
               style="stroke:none"
               inkscape:connector-curvature="0" />
          </symbol>
        </g>
      </defs>
      <g
         id="lx-text4966-surface1">
        <g
           id="g5136"
           style="fill:#000000;fill-opacity:1">
          <use
             id="use5134"
             y="0"
             x="0"
             xlink:href="#lx-text4966-glyph0-1"
             width="100%"
             height="100%" />
        </g>
      </g>
    </g>
    <path
       style="fill:none;stroke:#000000;stroke-width:0.19497474;stroke-linecap:butt;stroke-linejoin:miter;stroke-miterlimit:4;stroke-dasharray:none;stroke-dashoffset:0;stroke-opacity:1;marker-end:url(#TriangleOutM)"
       d="m 90.719652,27.044008 3.091318,4.581985"
       id="path5275"
       inkscape:connector-curvature="0" />
    <path
       style="fill:none;stroke:#000000;stroke-width:0.26458332px;stroke-linecap:butt;stroke-linejoin:miter;stroke-opacity:1"
       d="m 108.7849,37.672157 c 0.10625,6.588017 8.50067,8.288153 11.26339,6.906792"
       id="path5289"
       inkscape:connector-curvature="0" />
    <g
       id="lx-text5293"
       transform="matrix(0.352778,0,0,0.352778,108.2536,48.723025)">
      <defs
         id="defs5477">
        <g
           id="g5475">
          <symbol
             id="lx-text5293-glyph0-0"
             overflow="visible"
             style="overflow:visible">
            <path
               id="path5469"
               d=""
               style="stroke:none"
               inkscape:connector-curvature="0" />
          </symbol>
          <symbol
             id="lx-text5293-glyph0-1"
             overflow="visible"
             style="overflow:visible">
            <path
               id="path5472"
               d="m 6.359375,-7.21875 c 0,-1.453125 -0.46875,-2.875 -1.640625,-2.875 -2,0 -4.140625,4.203125 -4.140625,7.359375 0,0.65625 0.140625,2.875 1.640625,2.875 1.953125,0 4.140625,-4.09375 4.140625,-7.359375 z M 2.015625,-5.1875 C 2.21875,-6.03125 2.53125,-7.25 3.09375,-8.265625 3.578125,-9.125 4.078125,-9.8125 4.703125,-9.8125 5.171875,-9.8125 5.5,-9.40625 5.5,-8.03125 5.5,-7.515625 5.453125,-6.796875 5.03125,-5.1875 Z M 4.9375,-4.765625 c -0.359375,1.40625 -0.65625,2.3125 -1.171875,3.21875 -0.421875,0.734375 -0.921875,1.40625 -1.53125,1.40625 -0.4375,0 -0.796875,-0.34375 -0.796875,-1.765625 0,-0.9375 0.21875,-1.90625 0.453125,-2.859375 z m 0,0"
               style="stroke:none"
               inkscape:connector-curvature="0" />
          </symbol>
        </g>
      </defs>
      <g
         id="lx-text5293-surface1">
        <g
           id="g5481"
           style="fill:#000000;fill-opacity:1">
          <use
             id="use5479"
             y="0"
             x="0"
             xlink:href="#lx-text5293-glyph0-1"
             width="100%"
             height="100%" />
        </g>
      </g>
    </g>
    <path
       style="fill:none;stroke:#000000;stroke-width:0.26458332px;stroke-linecap:butt;stroke-linejoin:miter;stroke-opacity:1"
       d="m 121.32338,40.434873 -12.64474,30.283634 7.86312,0.425034 0.42503,5.737953 -8.28815,-0.74381 v -4.994143"
       id="path5626"
       inkscape:connector-curvature="0" />
    <path
       style="fill:none;stroke:#000000;stroke-width:0.26458332px;stroke-linecap:butt;stroke-linejoin:miter;stroke-opacity:1"
       d="m 116.54176,71.143539 4.78162,-30.708666 -4.35659,36.446621"
       id="path5628"
       inkscape:connector-curvature="0" />
    <g
       id="lx-text5632"
       transform="matrix(0.352778,0,0,0.352778,122.37229,45.530013)">
      <defs
         id="defs5830">
        <g
           id="g5828">
          <symbol
             id="lx-text5632-glyph0-0"
             overflow="visible"
             style="overflow:visible">
            <path
               id="path5819"
               d=""
               style="stroke:none"
               inkscape:connector-curvature="0" />
          </symbol>
          <symbol
             id="lx-text5632-glyph0-1"
             overflow="visible"
             style="overflow:visible">
            <path
               id="path5822"
               d="m 7.21875,-9.59375 c 0.015625,-0.0625 0.046875,-0.140625 0.046875,-0.21875 0,-0.140625 -0.15625,-0.140625 -0.1875,-0.140625 0,0 -0.703125,0.0625 -0.78125,0.0625 -0.25,0.015625 -0.453125,0.046875 -0.71875,0.0625 C 5.21875,-9.796875 5.125,-9.78125 5.125,-9.53125 c 0,0.15625 0.109375,0.15625 0.3125,0.15625 0.703125,0 0.71875,0.125 0.71875,0.265625 0,0.09375 -0.03125,0.203125 -0.046875,0.25 L 5.234375,-5.375 C 5.078125,-5.75 4.6875,-6.328125 3.9375,-6.328125 c -1.609375,0 -3.359375,2.09375 -3.359375,4.21875 0,1.421875 0.828125,2.25 1.796875,2.25 0.796875,0 1.46875,-0.609375 1.875,-1.09375 0.140625,0.859375 0.8125,1.09375 1.25,1.09375 0.421875,0 0.765625,-0.25 1.03125,-0.765625 C 6.75,-1.125 6.953125,-2 6.953125,-2.046875 6.953125,-2.125 6.90625,-2.1875 6.8125,-2.1875 c -0.125,0 -0.140625,0.078125 -0.203125,0.296875 -0.21875,0.84375 -0.484375,1.75 -1.078125,1.75 -0.40625,0 -0.4375,-0.375 -0.4375,-0.65625 0,-0.0625 0,-0.359375 0.09375,-0.765625 z M 4.3125,-1.703125 C 4.25,-1.46875 4.25,-1.4375 4.046875,-1.15625 c -0.3125,0.390625 -0.953125,1.015625 -1.625,1.015625 -0.578125,0 -0.921875,-0.53125 -0.921875,-1.375 0,-0.796875 0.453125,-2.40625 0.71875,-3 0.5,-1 1.171875,-1.515625 1.71875,-1.515625 0.953125,0 1.140625,1.171875 1.140625,1.28125 0,0.015625 -0.046875,0.203125 -0.0625,0.234375 z m 0,0"
               style="stroke:none"
               inkscape:connector-curvature="0" />
          </symbol>
          <symbol
             id="lx-text5632-glyph0-2"
             overflow="visible"
             style="overflow:visible">
            <path
               id="path5825"
               d="m 7.28125,-5.40625 c 0.1875,0 0.671875,0 0.671875,-0.453125 0,-0.328125 -0.28125,-0.328125 -0.53125,-0.328125 H 4.25 c -2.15625,0 -3.703125,2.40625 -3.703125,4.09375 0,1.21875 0.78125,2.234375 2.078125,2.234375 1.6875,0 3.546875,-1.8125 3.546875,-3.96875 0,-0.5625 -0.140625,-1.109375 -0.484375,-1.578125 z m -4.640625,5.265625 c -0.734375,0 -1.265625,-0.5625 -1.265625,-1.546875 0,-0.859375 0.515625,-3.71875 2.625,-3.71875 0.625,0 1.3125,0.296875 1.3125,1.40625 0,0.5 -0.234375,1.703125 -0.734375,2.53125 -0.515625,0.859375 -1.296875,1.328125 -1.9375,1.328125 z m 0,0"
               style="stroke:none"
               inkscape:connector-curvature="0" />
          </symbol>
        </g>
      </defs>
      <g
         id="lx-text5632-surface1">
        <g
           id="g5836"
           style="fill:#000000;fill-opacity:1">
          <use
             id="use5832"
             y="0"
             x="0"
             xlink:href="#lx-text5632-glyph0-1"
             width="100%"
             height="100%" />
          <use
             id="use5834"
             y="0"
             x="7.2993469"
             xlink:href="#lx-text5632-glyph0-2"
             width="100%"
             height="100%" />
        </g>
      </g>
    </g>
    <path
       style="fill:none;stroke:#000000;stroke-width:0.26458332px;stroke-linecap:butt;stroke-linejoin:miter;stroke-opacity:1;marker-end:url(#Arrow2Mend)"
       d="m 70.106851,30.87162 h 8.606927"
       id="path5980"
       inkscape:connector-curvature="0" />
    <g
       id="lx-text5986"
       transform="matrix(0.352778,0,0,0.352778,71.275692,28.427679)">
      <defs
         id="defs6203">
        <g
           id="g6201">
          <symbol
             id="lx-text5986-glyph0-0"
             overflow="visible"
             style="overflow:visible">
            <path
               id="path6189"
               d=""
               style="stroke:none"
               inkscape:connector-curvature="0" />
          </symbol>
          <symbol
             id="lx-text5986-glyph0-1"
             overflow="visible"
             style="overflow:visible">
            <path
               id="path6192"
               d="M 0.609375,1.828125 C 0.515625,2.25 0.453125,2.359375 -0.125,2.359375 c -0.171875,0 -0.3125,0 -0.3125,0.28125 0,0.03125 0,0.140625 0.171875,0.140625 0.171875,0 0.375,-0.03125 0.5625,-0.03125 h 0.625 c 0.296875,0 1.03125,0.03125 1.328125,0.03125 0.09375,0 0.265625,0 0.265625,-0.25 0,-0.171875 -0.109375,-0.171875 -0.34375,-0.171875 C 1.5,2.359375 1.46875,2.265625 1.46875,2.15625 c 0,-0.171875 0.640625,-2.640625 0.71875,-2.96875 0.171875,0.390625 0.546875,0.953125 1.296875,0.953125 1.625,0 3.375,-2.109375 3.375,-4.21875 0,-1.3125 -0.75,-2.25 -1.828125,-2.25 -0.921875,0 -1.6875,0.890625 -1.84375,1.09375 -0.125,-0.71875 -0.671875,-1.09375 -1.25,-1.09375 -0.421875,0 -0.75,0.203125 -1.015625,0.75 C 0.65625,-5.0625 0.453125,-4.1875 0.453125,-4.125 c 0,0.046875 0.0625,0.125 0.15625,0.125 0.125,0 0.140625,-0.015625 0.21875,-0.34375 0.21875,-0.84375 0.484375,-1.6875 1.0625,-1.6875 0.328125,0 0.453125,0.21875 0.453125,0.65625 0,0.34375 -0.046875,0.484375 -0.109375,0.734375 z M 3.09375,-4.46875 C 3.203125,-4.875 3.59375,-5.296875 3.828125,-5.5 3.984375,-5.640625 4.453125,-6.03125 5,-6.03125 c 0.640625,0 0.921875,0.625 0.921875,1.375 0,0.6875 -0.40625,2.296875 -0.765625,3.046875 -0.34375,0.78125 -1.015625,1.46875 -1.671875,1.46875 -0.96875,0 -1.125,-1.234375 -1.125,-1.296875 0,-0.046875 0.015625,-0.15625 0.03125,-0.21875 z m 0,0"
               style="stroke:none"
               inkscape:connector-curvature="0" />
          </symbol>
          <symbol
             id="lx-text5986-glyph1-0"
             overflow="visible"
             style="overflow:visible">
            <path
               id="path6195"
               d=""
               style="stroke:none"
               inkscape:connector-curvature="0" />
          </symbol>
          <symbol
             id="lx-text5986-glyph1-1"
             overflow="visible"
             style="overflow:visible">
            <path
               id="path6198"
               d="m 4.578125,-3.1875 c 0,-0.796875 -0.046875,-1.59375 -0.390625,-2.328125 -0.453125,-0.96875 -1.28125,-1.125 -1.6875,-1.125 -0.609375,0 -1.328125,0.265625 -1.75,1.1875 -0.3125,0.6875 -0.359375,1.46875 -0.359375,2.265625 0,0.75 0.03125,1.640625 0.453125,2.40625 0.421875,0.796875 1.15625,1 1.640625,1 0.53125,0 1.296875,-0.203125 1.734375,-1.15625 0.3125,-0.6875 0.359375,-1.46875 0.359375,-2.25 z M 2.484375,0 C 2.09375,0 1.5,-0.25 1.328125,-1.203125 1.21875,-1.796875 1.21875,-2.71875 1.21875,-3.3125 c 0,-0.640625 0,-1.296875 0.078125,-1.828125 0.1875,-1.1875 0.9375,-1.28125 1.1875,-1.28125 0.328125,0 0.984375,0.1875 1.171875,1.171875 0.109375,0.5625 0.109375,1.3125 0.109375,1.9375 0,0.75 0,1.421875 -0.109375,2.0625 C 3.5,-0.296875 2.9375,0 2.484375,0 Z m 0,0"
               style="stroke:none"
               inkscape:connector-curvature="0" />
          </symbol>
        </g>
      </defs>
      <g
         id="lx-text5986-surface1">
        <g
           id="g6207"
           style="fill:#000000;fill-opacity:1">
          <use
             id="use6205"
             y="0"
             x="0"
             xlink:href="#lx-text5986-glyph0-1"
             width="100%"
             height="100%" />
        </g>
        <g
           id="g6211"
           style="fill:#000000;fill-opacity:1">
          <use
             id="use6209"
             y="2.152"
             x="7.0500002"
             xlink:href="#lx-text5986-glyph1-1"
             width="100%"
             height="100%" />
        </g>
      </g>
    </g>
  </g>
</svg>
